<svg width="25" height="24" viewBox="0 0 25 24" fill="none" xmlns="http://www.w3.org/2000/svg">
<path d="M22.1599 10.44L21.1799 14.62C20.3399 18.23 18.6799 19.69 15.5599 19.39C15.0599 19.35 14.5199 19.26 13.9399 19.12L12.2599 18.72C8.08994 17.73 6.79994 15.67 7.77994 11.49L8.75994 7.30001C8.95994 6.45001 9.19994 5.71001 9.49994 5.10001C10.6699 2.68001 12.6599 2.03001 15.9999 2.82001L17.6699 3.21001C21.8599 4.19001 23.1399 6.26001 22.1599 10.44Z" stroke="#292D32" stroke-width="1.5" stroke-linecap="round" stroke-linejoin="round"/>
<path d="M15.5601 19.39C14.9401 19.81 14.1601 20.16 13.2101 20.47L11.6301 20.99C7.6601 22.27 5.5701 21.2 4.2801 17.23L3.0001 13.28C1.7201 9.30998 2.7801 7.20998 6.7501 5.92998L8.3301 5.40998C8.7401 5.27998 9.1301 5.16998 9.5001 5.09998C9.2001 5.70998 8.9601 6.44998 8.7601 7.29998L7.7801 11.49C6.8001 15.67 8.0901 17.73 12.2601 18.72L13.9401 19.12C14.5201 19.26 15.0601 19.35 15.5601 19.39Z" stroke="#292D32" stroke-width="1.5" stroke-linecap="round" stroke-linejoin="round"/>
<path d="M13.1399 8.53003L17.9899 9.76003" stroke="#292D32" stroke-width="1.5" stroke-linecap="round" stroke-linejoin="round"/>
<path d="M12.1599 12.4L15.0599 13.14" stroke="#292D32" stroke-width="1.5" stroke-linecap="round" stroke-linejoin="round"/>
</svg>
