<svg width="25" height="25" viewBox="0 0 25 25" fill="none" xmlns="http://www.w3.org/2000/svg">
<path d="M11.198 2.55209C11.9167 1.9375 13.0938 1.9375 13.823 2.55209L15.4688 3.96875C15.7813 4.23959 16.3647 4.45834 16.7813 4.45834H18.5522C19.6563 4.45834 20.5626 5.36459 20.5626 6.46875V8.23959C20.5626 8.64584 20.7813 9.23959 21.0522 9.55209L22.4688 11.1979C23.0834 11.9167 23.0834 13.0938 22.4688 13.8229L21.0522 15.4688C20.7813 15.7813 20.5626 16.3646 20.5626 16.7813V18.5521C20.5626 19.6563 19.6563 20.5625 18.5522 20.5625H16.7813C16.3751 20.5625 15.7813 20.7813 15.4688 21.0521L13.823 22.4688C13.1042 23.0833 11.9272 23.0833 11.198 22.4688L9.55217 21.0521C9.23967 20.7813 8.65633 20.5625 8.23966 20.5625H6.43758C5.33341 20.5625 4.42716 19.6563 4.42716 18.5521V16.7708C4.42716 16.3646 4.20841 15.7813 3.948 15.4688L2.54175 13.8125C1.93758 13.0938 1.93758 11.9271 2.54175 11.2083L3.948 9.55209C4.20841 9.23959 4.42716 8.65625 4.42716 8.25V6.45834C4.42716 5.35417 5.33341 4.44792 6.43758 4.44792H8.23966C8.64591 4.44792 9.23967 4.22917 9.55217 3.95834L11.198 2.55209Z" stroke="#535252" stroke-linecap="round" stroke-linejoin="round"/>
<path d="M8.72925 12.5L11.2397 15.0209L16.2709 9.97919" stroke="#535252" stroke-linecap="round" stroke-linejoin="round"/>
</svg>
