<svg width="25" height="25" viewBox="0 0 25 25" fill="none" xmlns="http://www.w3.org/2000/svg">
<path d="M11.198 2.55206C11.9167 1.93748 13.0938 1.93748 13.823 2.55206L15.4688 3.96873C15.7813 4.23956 16.3647 4.45831 16.7813 4.45831H18.5522C19.6563 4.45831 20.5626 5.36456 20.5626 6.46873V8.23956C20.5626 8.64581 20.7813 9.23956 21.0522 9.55206L22.4688 11.1979C23.0834 11.9166 23.0834 13.0937 22.4688 13.8229L21.0522 15.4687C20.7813 15.7812 20.5626 16.3646 20.5626 16.7812V18.5521C20.5626 19.6562 19.6563 20.5625 18.5522 20.5625H16.7813C16.3751 20.5625 15.7813 20.7812 15.4688 21.0521L13.823 22.4687C13.1042 23.0833 11.9272 23.0833 11.198 22.4687L9.55217 21.0521C9.23967 20.7812 8.65633 20.5625 8.23967 20.5625H6.43758C5.33341 20.5625 4.42716 19.6562 4.42716 18.5521V16.7708C4.42716 16.3646 4.20841 15.7812 3.948 15.4687L2.54175 13.8125C1.93758 13.0937 1.93758 11.9271 2.54175 11.2083L3.948 9.55206C4.20841 9.23956 4.42716 8.65623 4.42716 8.24998V6.45831C4.42716 5.35415 5.33341 4.4479 6.43758 4.4479H8.23967C8.64592 4.4479 9.23967 4.22915 9.55217 3.95831L11.198 2.55206Z" fill="#535252" stroke="#535252" stroke-linecap="round" stroke-linejoin="round"/>
<path d="M8.72925 12.5L11.2397 15.0209L16.2709 9.97919" stroke="white" stroke-linecap="round" stroke-linejoin="round"/>
</svg>
