<svg width="20" height="18" viewBox="0 0 20 18" fill="none" xmlns="http://www.w3.org/2000/svg">
<path d="M19 9.22C19 3.73 14.74 0 10 0C5.31 0 1 3.65 1 9.28C0.4 9.62 0 10.26 0 11V13C0 14.1 0.9 15 2 15C2.55 15 3 14.55 3 14V9.19C3 5.36 5.95 2.01 9.78 1.9C13.74 1.78 17 4.96 17 8.9V16H10C9.45 16 9 16.45 9 17C9 17.55 9.45 18 10 18H17C18.1 18 19 17.1 19 16V14.78C19.59 14.47 20 13.86 20 13.14V10.84C20 10.14 19.59 9.53 19 9.22Z" fill="#292D32"/>
<path d="M7 11C7.55228 11 8 10.5523 8 10C8 9.44772 7.55228 9 7 9C6.44772 9 6 9.44772 6 10C6 10.5523 6.44772 11 7 11Z" fill="#292D32"/>
<path d="M13 11C13.5523 11 14 10.5523 14 10C14 9.44772 13.5523 9 13 9C12.4477 9 12 9.44772 12 10C12 10.5523 12.4477 11 13 11Z" fill="#292D32"/>
<path d="M4.0343 2.6797C4.46272 4.81989 6.76192 6.47492 9.5519 6.50035C12.3792 6.52612 15.4383 4.67257 15.2226 1.71728C12.9109 2.45328 11.1603 4.08639 10.6475 6.09057C9.44306 4.10821 6.94538 2.72872 4.0343 2.6797Z" fill="#292D32"/>
<path d="M8 1L4 2.95756C4.83333 3.50133 7 4.78463 9 5.56765C11 6.35068 11.8333 5.89391 12 5.56765L15 3.28383V1.97878L12.5 1H8Z" fill="#292D32"/>
</svg>
