<svg width="25" height="25" viewBox="0 0 25 25" fill="none" xmlns="http://www.w3.org/2000/svg">
<path d="M23.4515 18.0761C23.4716 18.8313 23.2702 19.5462 22.9077 20.1604C22.7063 20.5229 22.4345 20.8553 22.1324 21.1271C21.4376 21.7716 20.5213 22.1643 19.5043 22.1945C18.0341 22.2247 16.7352 21.4695 16.0202 20.3115C15.6376 19.7174 15.406 19.0025 15.3959 18.2473C15.3657 16.9785 15.9296 15.8306 16.8359 15.0754C17.5206 14.5115 18.3866 14.1591 19.3331 14.1389C21.5584 14.0886 23.4011 15.8507 23.4515 18.0761Z" stroke="#292D32" stroke-width="1.5" stroke-miterlimit="10" stroke-linecap="round" stroke-linejoin="round"/>
<path d="M17.8528 18.1969L18.8698 19.1636L20.9743 17.1295" stroke="#292D32" stroke-width="1.5" stroke-linecap="round" stroke-linejoin="round"/>
<path d="M3.48364 7.53339L12.3749 12.6789L21.2058 7.56356" stroke="#292D32" stroke-width="1.5" stroke-linecap="round" stroke-linejoin="round"/>
<path d="M12.375 21.8018V12.6688" stroke="#292D32" stroke-width="1.5" stroke-linecap="round" stroke-linejoin="round"/>
<path d="M22.0517 9.2754V14.9747C22.0517 15.0251 22.0517 15.0653 22.0416 15.1157C21.3368 14.5014 20.4305 14.139 19.4236 14.139C18.477 14.139 17.601 14.4713 16.9062 15.0251C15.9798 15.7601 15.3958 16.898 15.3958 18.1667C15.3958 18.9219 15.6072 19.6369 15.9798 20.241C16.0704 20.4021 16.1812 20.5532 16.302 20.6942L14.4593 21.7112C13.3114 22.3556 11.4385 22.3556 10.2906 21.7112L4.9135 18.7306C3.6951 18.056 2.69824 16.3643 2.69824 14.9747V9.2754C2.69824 7.88581 3.6951 6.19417 4.9135 5.51951L10.2906 2.53894C11.4385 1.89449 13.3114 1.89449 14.4593 2.53894L19.8364 5.51951C21.0548 6.19417 22.0517 7.88581 22.0517 9.2754Z" stroke="#292D32" stroke-width="1.5" stroke-linecap="round" stroke-linejoin="round"/>
</svg>
