<svg width="30" height="30" viewBox="0 0 30 30" fill="none" xmlns="http://www.w3.org/2000/svg">
<path d="M6.07275 14.3396V18.8608C6.07275 23.382 7.88525 25.1945 12.4064 25.1945H17.8339C22.355 25.1945 24.1675 23.382 24.1675 18.8608V14.3396" stroke="#292D32" stroke-width="1.5" stroke-linecap="round" stroke-linejoin="round"/>
<path d="M15.1252 15.125C16.9679 15.125 18.3273 13.6247 18.146 11.782L17.4814 5.0556H12.779L12.1043 11.782C11.9231 13.6247 13.2825 15.125 15.1252 15.125Z" stroke="#292D32" stroke-width="1.5" stroke-linecap="round" stroke-linejoin="round"/>
<path d="M21.479 15.125C23.513 15.125 25.0033 13.4737 24.8019 11.4497L24.52 8.6806C24.1575 6.06255 23.1505 5.0556 20.5123 5.0556H17.4412L18.146 12.1143C18.3172 13.7757 19.8175 15.125 21.479 15.125Z" stroke="#292D32" stroke-width="1.5" stroke-linecap="round" stroke-linejoin="round"/>
<path d="M8.72103 15.125C10.3825 15.125 11.8828 13.7757 12.0439 12.1143L12.2655 9.88894L12.7488 5.0556H9.67763C7.03943 5.0556 6.03249 6.06255 5.66999 8.6806L5.39811 11.4497C5.19672 13.4737 6.687 15.125 8.72103 15.125Z" stroke="#292D32" stroke-width="1.5" stroke-linecap="round" stroke-linejoin="round"/>
<path d="M15.125 20.1597C13.4434 20.1597 12.6077 20.9955 12.6077 22.6771V25.1945H17.6424V22.6771C17.6424 20.9955 16.8066 20.1597 15.125 20.1597Z" stroke="#292D32" stroke-width="1.5" stroke-linecap="round" stroke-linejoin="round"/>
</svg>
