<svg width="25" height="25" viewBox="0 0 25 25" fill="none" xmlns="http://www.w3.org/2000/svg">
<path d="M3.30225 7.75001L12.5001 13.0729L21.6356 7.78122" stroke="#535252" stroke-linecap="round" stroke-linejoin="round"/>
<path d="M12.5002 22.5104V13.0625" stroke="#535252" stroke-linecap="round" stroke-linejoin="round"/>
<path d="M22.5106 13.3646V9.55209C22.5106 8.11459 21.4793 6.36461 20.2189 5.66669L14.6564 2.58334C13.4689 1.91667 11.5314 1.91667 10.3439 2.58334L4.78139 5.66669C3.52098 6.36461 2.48975 8.11459 2.48975 9.55209V15.448C2.48975 16.8855 3.52098 18.6354 4.78139 19.3334L10.3439 22.4167C10.9376 22.75 11.7189 22.9167 12.5001 22.9167C13.2814 22.9167 14.0627 22.75 14.6564 22.4167" stroke="#535252" stroke-linecap="round" stroke-linejoin="round"/>
<path d="M20.0001 22.2917C21.841 22.2917 23.3334 20.7993 23.3334 18.9583C23.3334 17.1174 21.841 15.625 20.0001 15.625C18.1591 15.625 16.6667 17.1174 16.6667 18.9583C16.6667 20.7993 18.1591 22.2917 20.0001 22.2917Z" stroke="#535252" stroke-linecap="round" stroke-linejoin="round"/>
<path d="M23.9584 22.9167L22.9167 21.875" stroke="#535252" stroke-linecap="round" stroke-linejoin="round"/>
</svg>
