<svg width="25" height="25" viewBox="0 0 25 25" fill="none" xmlns="http://www.w3.org/2000/svg">
<path d="M22.5105 13.3648V9.55225C22.5105 8.11475 21.4793 6.36477 20.2189 5.66685L14.6564 2.5835C13.4689 1.91683 11.5314 1.91683 10.3439 2.5835L4.78139 5.66685C3.52098 6.36477 2.48975 8.11475 2.48975 9.55225V15.4481C2.48975 16.8856 3.52098 18.6356 4.78139 19.3335L10.3439 22.4169C10.9376 22.7502 11.7189 22.9168 12.5001 22.9168C13.2814 22.9168 14.0627 22.7502 14.6564 22.4169" stroke="#535252" stroke-linecap="round" stroke-linejoin="round"/>
<path d="M2.5 10L3.5 7L12.5 11.5V23L10.5 22.5L4 19L2.5 16.5V10Z" fill="#535252"/>
<path d="M4.5 6L3.5 7.5L12.5 13L21.5 7.5L21 6L14 2H11.5L4.5 6Z" fill="#535252"/>
<path d="M3.30225 7.75L12.5001 13.0729L21.6356 7.78122" stroke="white" stroke-linecap="round" stroke-linejoin="round"/>
<path d="M20.0001 22.2917C21.841 22.2917 23.3334 20.7993 23.3334 18.9583C23.3334 17.1174 21.841 15.625 20.0001 15.625C18.1591 15.625 16.6667 17.1174 16.6667 18.9583C16.6667 20.7993 18.1591 22.2917 20.0001 22.2917Z" stroke="#535252" stroke-linecap="round" stroke-linejoin="round"/>
<path d="M23.9584 22.9167L22.9167 21.875" stroke="#535252" stroke-linecap="round" stroke-linejoin="round"/>
</svg>
