<svg width="25" height="26" viewBox="0 0 25 26" fill="none" xmlns="http://www.w3.org/2000/svg">
<path d="M8.073 9.84375H5.72925" stroke="white" stroke-width="2" stroke-linecap="round" stroke-linejoin="round"/>
<path d="M8.85425 12.9688H5.72925" stroke="white" stroke-width="2" stroke-linecap="round" stroke-linejoin="round"/>
<path d="M13.1458 21.677C12.7916 21.802 12.2083 21.802 11.8541 21.677C8.83325 20.6458 2.08325 16.3437 2.08325 9.05204C2.08325 5.83329 4.677 3.22913 7.87492 3.22913C9.77075 3.22913 11.4478 4.14579 12.4999 5.56246C13.552 4.14579 15.2395 3.22913 17.1249 3.22913C20.3228 3.22913 22.9166 5.83329 22.9166 9.05204C22.9166 16.3437 16.1666 20.6458 13.1458 21.677Z" fill="#535252" stroke="#535252" stroke-linecap="round" stroke-linejoin="round"/>
<path d="M16.0002 5.99997C18.7396 5.78301 20.9999 7.49997 20 12" stroke="white" stroke-linecap="round"/>
</svg>
